<svg width="135" height="52" viewBox="0 0 135 52" fill="none" xmlns="http://www.w3.org/2000/svg">
<path opacity="0.6" d="M3.08239 15H4.35511L6.60227 6.88636H6.68182L8.92898 15H10.2017L12.9858 4.81818H11.733L9.60511 13.1108H9.50568L7.33807 4.81818H5.94602L3.77841 13.1108H3.67898L1.55114 4.81818H0.298295L3.08239 15ZM16.8537 15.1591C18.4048 15.1591 19.5384 14.3835 19.8963 13.2301L18.7628 12.9119C18.4645 13.7074 17.7734 14.1051 16.8537 14.1051C15.4766 14.1051 14.527 13.2152 14.4723 11.5795H20.0156V11.0824C20.0156 8.23864 18.3253 7.2642 16.7344 7.2642C14.6662 7.2642 13.294 8.89489 13.294 11.2415C13.294 13.5881 14.6463 15.1591 16.8537 15.1591ZM14.4723 10.5653C14.5518 9.37713 15.392 8.31818 16.7344 8.31818C18.0071 8.31818 18.8224 9.27273 18.8224 10.5653H14.4723ZM27.9851 15.179C29.3175 15.179 30.0135 14.4631 30.2521 13.9659H30.3118V15H31.4851V9.96875C31.4851 7.54261 29.6357 7.2642 28.6612 7.2642C27.5078 7.2642 26.1953 7.66193 25.5987 9.05398L26.7124 9.4517C26.9709 8.89489 27.5824 8.2983 28.701 8.2983C29.7798 8.2983 30.3118 8.87003 30.3118 9.84943V9.8892C30.3118 10.456 29.7351 10.4062 28.343 10.5852C26.9261 10.7692 25.38 11.0824 25.38 12.8324C25.38 14.3239 26.5334 15.179 27.9851 15.179ZM28.1641 14.125C27.2294 14.125 26.5533 13.7074 26.5533 12.892C26.5533 11.9972 27.3686 11.7188 28.2834 11.5994C28.7805 11.5398 30.1129 11.4006 30.3118 11.1619V12.2358C30.3118 13.1903 29.5561 14.125 28.1641 14.125ZM33.6266 15H34.7999V10.1676C34.7999 9.13352 35.6152 8.37784 36.7289 8.37784C37.0421 8.37784 37.3652 8.4375 37.4448 8.45739V7.2642C37.3105 7.25426 37.0023 7.24432 36.8283 7.24432C35.9135 7.24432 35.1181 7.76136 34.8397 8.51705H34.7601V7.36364H33.6266V15ZM41.8049 15.1591C43.356 15.1591 44.4895 14.3835 44.8475 13.2301L43.714 12.9119C43.4157 13.7074 42.7246 14.1051 41.8049 14.1051C40.4277 14.1051 39.4782 13.2152 39.4235 11.5795H44.9668V11.0824C44.9668 8.23864 43.2765 7.2642 41.6855 7.2642C39.6174 7.2642 38.2452 8.89489 38.2452 11.2415C38.2452 13.5881 39.5975 15.1591 41.8049 15.1591ZM39.4235 10.5653C39.503 9.37713 40.3432 8.31818 41.6855 8.31818C42.9583 8.31818 43.7736 9.27273 43.7736 10.5653H39.4235Z" fill="#6D6E76"/>
<path d="M2.22656 44V28.2969H12.9375V31.2266H5.48438V44H2.22656ZM3.96094 38.1172V35.1875H11.6484V38.1172H3.96094ZM21.6328 44.3516C20.7578 44.3516 19.9375 44.2031 19.1719 43.9062C18.4062 43.5938 17.7266 43.1641 17.1328 42.6172C16.5547 42.0703 16.1016 41.4219 15.7734 40.6719C15.4453 39.9219 15.2812 39.1016 15.2812 38.2109C15.2812 37.0547 15.5391 36 16.0547 35.0469C16.5703 34.0781 17.2812 33.3047 18.1875 32.7266C19.0938 32.1484 20.125 31.8594 21.2812 31.8594C22.4375 31.8594 23.4297 32.1094 24.2578 32.6094C25.1016 33.1094 25.7422 33.8047 26.1797 34.6953C26.6328 35.5703 26.8594 36.5859 26.8594 37.7422V39.0078H18.0234V36.9688H24C23.9688 36.3906 23.8125 35.9219 23.5312 35.5625C23.25 35.1875 22.9062 34.9141 22.5 34.7422C22.0938 34.5547 21.6641 34.4609 21.2109 34.4609C20.6016 34.4609 20.0703 34.6172 19.6172 34.9297C19.1797 35.2422 18.8359 35.6797 18.5859 36.2422C18.3359 36.8047 18.2109 37.4609 18.2109 38.2109C18.2109 38.8828 18.3594 39.4766 18.6562 39.9922C18.9531 40.5078 19.3672 40.9141 19.8984 41.2109C20.4453 41.5078 21.0625 41.6562 21.75 41.6562C22.625 41.6562 23.4062 41.4844 24.0938 41.1406C24.7969 40.7969 25.3516 40.4453 25.7578 40.0859V42.8516C25.5234 43.0703 25.1953 43.2969 24.7734 43.5312C24.3516 43.7656 23.8672 43.9609 23.3203 44.1172C22.7891 44.2734 22.2266 44.3516 21.6328 44.3516ZM34.0547 44.3516C33.1172 44.3516 32.2422 44.1094 31.4297 43.625C30.6328 43.1406 29.9844 42.4375 29.4844 41.5156C29 40.5938 28.7578 39.4766 28.7578 38.1641C28.7578 36.8359 29 35.7031 29.4844 34.7656C29.9844 33.8281 30.6484 33.1094 31.4766 32.6094C32.3203 32.1094 33.25 31.8594 34.2656 31.8594C34.9219 31.8594 35.5703 32.0078 36.2109 32.3047C36.8672 32.6016 37.4141 33 37.8516 33.5V32.1641H40.8281V44H37.8516V42.0078C37.5078 42.6484 37.0078 43.2031 36.3516 43.6719C35.6953 44.125 34.9297 44.3516 34.0547 44.3516ZM34.8047 41.375C35.3359 41.375 35.8281 41.2344 36.2812 40.9531C36.75 40.6719 37.1328 40.2734 37.4297 39.7578C37.7266 39.2422 37.8672 38.6328 37.8516 37.9297V36.2422C37.4297 35.7891 36.9688 35.4297 36.4688 35.1641C35.9844 34.8984 35.4531 34.7656 34.875 34.7656C34.25 34.7656 33.7109 34.9297 33.2578 35.2578C32.8203 35.5703 32.4766 35.9844 32.2266 36.5C31.9766 37.0156 31.8516 37.5703 31.8516 38.1641C31.8516 38.7422 31.9766 39.2812 32.2266 39.7812C32.4766 40.2656 32.8203 40.6562 33.2578 40.9531C33.7109 41.2344 34.2266 41.375 34.8047 41.375ZM49.3828 44.3516C48.6797 44.3516 48.0391 44.1953 47.4609 43.8828C46.8984 43.5703 46.4531 43.1328 46.125 42.5703C45.7969 41.9922 45.6328 41.3125 45.6328 40.5312V34.6484H43.6641V33.125C44.4297 32.8594 45.0547 32.3672 45.5391 31.6484C46.0391 30.9297 46.4766 30.0312 46.8516 28.9531H48.6094V32.1641H52.1719V34.6484H48.6094V39.7578C48.6094 40.2891 48.7422 40.7109 49.0078 41.0234C49.2891 41.3203 49.6953 41.4688 50.2266 41.4688C50.6953 41.4688 51.1016 41.3984 51.4453 41.2578C51.7891 41.1172 52.0938 40.9688 52.3594 40.8125V43.3438C52.0781 43.6406 51.6797 43.8828 51.1641 44.0703C50.6641 44.2578 50.0703 44.3516 49.3828 44.3516ZM60.5156 44.2812C59.4844 44.2812 58.5625 44.0781 57.75 43.6719C56.9531 43.2656 56.3203 42.6875 55.8516 41.9375C55.3984 41.1719 55.1719 40.2656 55.1719 39.2188V32.1641H58.1953V38.6797C58.1953 39.5859 58.4062 40.2734 58.8281 40.7422C59.2656 41.1953 59.8281 41.4219 60.5156 41.4219C61.2031 41.4219 61.7578 41.1953 62.1797 40.7422C62.6172 40.2734 62.8359 39.5859 62.8359 38.6797V32.1641H65.8594V39.2188C65.8594 40.2656 65.625 41.1719 65.1562 41.9375C64.6875 42.6875 64.0469 43.2656 63.2344 43.6719C62.4375 44.0781 61.5312 44.2812 60.5156 44.2812ZM69.2578 44V32.1641H72.2344V44H69.2578ZM72.2344 37.3906V34.3906C72.6406 33.6875 73.1172 33.1016 73.6641 32.6328C74.2266 32.1641 74.8594 31.9297 75.5625 31.9297C76 31.9297 76.3828 32 76.7109 32.1406V35.4922C76.4766 35.3516 76.2266 35.25 75.9609 35.1875C75.7109 35.1094 75.4375 35.0703 75.1406 35.0703C74.4688 35.0703 73.8984 35.2969 73.4297 35.75C72.9766 36.1875 72.5781 36.7344 72.2344 37.3906ZM84.5391 44.3516C83.6641 44.3516 82.8438 44.2031 82.0781 43.9062C81.3125 43.5938 80.6328 43.1641 80.0391 42.6172C79.4609 42.0703 79.0078 41.4219 78.6797 40.6719C78.3516 39.9219 78.1875 39.1016 78.1875 38.2109C78.1875 37.0547 78.4453 36 78.9609 35.0469C79.4766 34.0781 80.1875 33.3047 81.0938 32.7266C82 32.1484 83.0312 31.8594 84.1875 31.8594C85.3438 31.8594 86.3359 32.1094 87.1641 32.6094C88.0078 33.1094 88.6484 33.8047 89.0859 34.6953C89.5391 35.5703 89.7656 36.5859 89.7656 37.7422V39.0078H80.9297V36.9688H86.9062C86.875 36.3906 86.7188 35.9219 86.4375 35.5625C86.1562 35.1875 85.8125 34.9141 85.4062 34.7422C85 34.5547 84.5703 34.4609 84.1172 34.4609C83.5078 34.4609 82.9766 34.6172 82.5234 34.9297C82.0859 35.2422 81.7422 35.6797 81.4922 36.2422C81.2422 36.8047 81.1172 37.4609 81.1172 38.2109C81.1172 38.8828 81.2656 39.4766 81.5625 39.9922C81.8594 40.5078 82.2734 40.9141 82.8047 41.2109C83.3516 41.5078 83.9688 41.6562 84.6562 41.6562C85.5312 41.6562 86.3125 41.4844 87 41.1406C87.7031 40.7969 88.2578 40.4453 88.6641 40.0859V42.8516C88.4297 43.0703 88.1016 43.2969 87.6797 43.5312C87.2578 43.7656 86.7734 43.9609 86.2266 44.1172C85.6953 44.2734 85.1328 44.3516 84.5391 44.3516ZM96.9609 44.3516C96.0234 44.3516 95.1484 44.1094 94.3359 43.625C93.5391 43.1406 92.8906 42.4375 92.3906 41.5156C91.9062 40.5938 91.6641 39.4766 91.6641 38.1641C91.6641 36.8359 91.9062 35.7031 92.3906 34.7656C92.8906 33.8281 93.5547 33.1094 94.3828 32.6094C95.2266 32.1094 96.1562 31.8594 97.1719 31.8594C97.8281 31.8594 98.4766 32.0078 99.1172 32.3047C99.7734 32.6016 100.32 33 100.758 33.5V27.125H103.734V44H100.758V42.0078C100.414 42.6484 99.9141 43.2031 99.2578 43.6719C98.6016 44.125 97.8359 44.3516 96.9609 44.3516ZM97.7109 41.375C98.2422 41.375 98.7344 41.2344 99.1875 40.9531C99.6562 40.6719 100.039 40.2734 100.336 39.7578C100.633 39.2422 100.773 38.6328 100.758 37.9297V36.2422C100.336 35.7891 99.875 35.4375 99.375 35.1875C98.8906 34.9219 98.3594 34.7891 97.7812 34.7891C97.1562 34.7891 96.6172 34.9531 96.1641 35.2812C95.7266 35.5938 95.3828 36.0078 95.1328 36.5234C94.8828 37.0234 94.7578 37.5703 94.7578 38.1641C94.7578 38.7422 94.8828 39.2812 95.1328 39.7812C95.3828 40.2656 95.7266 40.6562 96.1641 40.9531C96.6172 41.2344 97.1328 41.375 97.7109 41.375ZM116.859 30.0312C116.297 30.0312 115.812 29.8281 115.406 29.4219C115 29.0156 114.797 28.5469 114.797 28.0156C114.797 27.4531 115 26.9766 115.406 26.5859C115.812 26.1953 116.297 26 116.859 26C117.234 26 117.578 26.0938 117.891 26.2812C118.203 26.4531 118.453 26.6953 118.641 27.0078C118.828 27.3047 118.922 27.6406 118.922 28.0156C118.922 28.3594 118.828 28.6875 118.641 29C118.453 29.3125 118.203 29.5625 117.891 29.75C117.578 29.9375 117.234 30.0312 116.859 30.0312ZM115.664 44V32.1641H118.641V44H115.664ZM113.766 34.6953V32.1641H118.641V34.6953H113.766ZM130.148 44L130.125 37.1328C130.125 36.3359 129.93 35.7422 129.539 35.3516C129.164 34.9609 128.641 34.7656 127.969 34.7656C127.438 34.7656 126.945 34.9375 126.492 35.2812C126.039 35.625 125.641 36.0312 125.297 36.5V33.8516C125.547 33.5234 125.844 33.2109 126.188 32.9141C126.547 32.6016 126.953 32.3516 127.406 32.1641C127.859 31.9609 128.352 31.8594 128.883 31.8594C129.695 31.8594 130.422 32.0391 131.062 32.3984C131.703 32.7578 132.203 33.3047 132.562 34.0391C132.938 34.7578 133.125 35.6562 133.125 36.7344V44H130.148ZM122.32 44V32.1641H125.297V44H122.32Z" fill="#6D6E76"/>
</svg>
